<?xml version="1.0" standalone="no"?>
<!DOCTYPE svg PUBLIC "-//W3C//DTD SVG 20010904//EN"
 "http://www.w3.org/TR/2001/REC-SVG-20010904/DTD/svg10.dtd">
<svg version="1.0" xmlns="http://www.w3.org/2000/svg"
 width="300.000000pt" height="480.000000pt" viewBox="0 0 300.000000 480.000000"
 preserveAspectRatio="xMidYMid meet">
<metadata>
Created by potrace 1.10, written by Peter Selinger 2001-2011
</metadata>
<g transform="translate(0.000000,480.000000) scale(0.100000,-0.100000)"
fill="#000000" stroke="none">
<path d="M543 4206 c-43 -65 -60 -152 -45 -237 17 -96 46 -167 92 -223 22 -26
40 -54 40 -61 0 -6 9 -20 20 -30 15 -13 17 -22 10 -29 -15 -15 -60 37 -60 70
0 13 -4 24 -10 24 -14 0 -12 -58 4 -103 19 -52 42 -75 82 -83 41 -8 50 -18 57
-71 11 -89 87 -192 167 -228 22 -10 40 -21 40 -25 0 -12 61 -102 66 -97 3 3
-6 27 -20 53 -14 27 -28 57 -30 67 -3 9 -17 22 -30 27 -40 15 -108 82 -127
125 -10 22 -19 57 -19 78 0 29 -8 46 -39 80 -32 35 -39 51 -43 94 -4 38 -13
62 -34 88 -87 107 -104 133 -121 184 -11 36 -18 86 -18 141 0 73 4 92 28 139
35 67 29 76 -10 17z"/>
<path d="M2381 4235 c3 -5 15 -31 27 -58 62 -130 26 -303 -88 -423 -50 -52
-74 -110 -64 -150 4 -17 -4 -33 -35 -64 -33 -34 -41 -50 -41 -79 0 -20 -9 -54
-19 -76 -21 -46 -89 -112 -132 -127 -17 -6 -29 -17 -29 -27 0 -10 -11 -39 -25
-65 -15 -29 -20 -46 -13 -44 7 2 24 25 37 52 18 36 34 52 67 67 24 12 61 40
82 63 39 43 82 136 82 180 0 27 14 41 53 50 60 14 109 107 88 164 l-9 27 -1
-26 c-1 -30 -36 -79 -57 -79 -19 0 -18 7 6 37 11 14 20 32 20 39 0 8 13 26 30
40 66 60 103 171 98 297 -3 93 -28 168 -67 200 -8 7 -12 8 -10 2z"/>
<path d="M392 3893 c-79 -113 -109 -266 -81 -419 14 -75 40 -123 85 -152 43
-28 94 -106 94 -144 0 -45 -36 -107 -66 -114 -25 -6 -26 -9 -20 -57 8 -57 38
-127 67 -153 10 -9 40 -31 66 -48 40 -26 49 -38 59 -80 22 -86 71 -132 171
-161 69 -20 79 -13 20 13 -24 11 -64 37 -87 58 -73 66 -87 131 -49 226 29 75
24 185 -10 222 -29 31 -40 27 -17 -6 31 -43 10 -98 -36 -98 -40 0 -53 25 -52
99 0 51 7 78 28 120 27 52 27 55 12 95 -20 52 -65 109 -66 84 0 -29 -27 -20
-74 25 -95 91 -111 285 -36 445 34 72 34 72 21 72 -5 0 -18 -12 -29 -27z m135
-591 c14 -20 17 -58 4 -66 -5 -3 -16 5 -25 19 -9 14 -24 37 -33 52 l-17 26 29
-7 c16 -4 35 -15 42 -24z m-18 -295 c22 -45 53 -67 96 -67 14 0 25 -4 25 -8 0
-25 -34 -102 -44 -102 -26 0 -96 61 -116 99 -22 45 -26 91 -8 109 19 19 25 15
47 -31z"/>
<path d="M2530 3917 c0 -2 13 -33 29 -68 39 -88 52 -170 40 -260 -13 -100 -24
-126 -78 -181 -46 -49 -71 -60 -71 -33 0 8 -3 15 -8 15 -9 0 -72 -113 -72
-129 0 -6 12 -35 26 -64 30 -61 37 -150 15 -191 -16 -28 -57 -36 -79 -14 -15
15 -16 63 -2 89 17 31 -4 22 -23 -10 -25 -42 -23 -165 3 -222 11 -24 20 -57
20 -73 0 -72 -78 -167 -162 -197 -21 -7 -38 -17 -38 -21 0 -11 3 -11 72 13
104 35 133 64 164 168 10 34 22 51 46 65 18 10 46 31 62 45 65 59 101 202 55
216 -47 15 -75 114 -48 168 6 12 39 49 74 82 72 68 91 116 102 245 7 96 -22
221 -71 300 -29 46 -56 74 -56 57z m-62 -637 c-36 -54 -44 -59 -51 -32 -6 27
20 70 45 75 13 2 26 5 31 6 4 0 -8 -21 -25 -49z m32 -251 c18 -34 -13 -110
-65 -158 -25 -23 -51 -41 -60 -41 -16 0 -45 59 -45 91 0 15 7 19 33 19 38 0
81 39 92 83 8 32 30 35 45 6z"/>
<path d="M1039 3675 c36 -42 39 -74 10 -101 -21 -19 -21 -18 -47 11 l-25 30 7
-40 c8 -41 19 -55 46 -55 24 0 40 -21 40 -52 0 -21 -5 -28 -20 -28 -11 0 -20
4 -20 8 0 12 -41 54 -47 48 -3 -3 -1 -11 4 -18 6 -7 16 -30 22 -50 12 -38 24
-45 106 -63 39 -9 55 -23 55 -49 1 -31 26 -95 46 -117 24 -26 27 -18 8 20 -10
20 -14 47 -11 69 3 30 -1 42 -22 64 -24 25 -26 32 -26 126 0 84 -3 103 -19
121 -27 30 -36 26 -29 -14 4 -27 2 -36 -11 -41 -25 -10 -29 0 -17 42 14 51 5
80 -34 104 -47 29 -51 25 -16 -15z m84 -217 c-7 -50 -8 -52 -22 -43 -8 4 -8
12 -1 25 5 10 10 28 10 39 0 12 4 21 9 21 5 0 7 -19 4 -42z"/>
<path d="M1810 3695 c0 -3 7 -17 16 -30 11 -18 14 -38 11 -72 -3 -27 -9 -77
-13 -113 -3 -36 -11 -71 -16 -77 -7 -9 -7 -13 0 -13 14 0 32 33 32 59 0 12 5
21 10 21 18 0 11 -61 -10 -87 -34 -44 -26 -80 19 -74 7 2 11 -4 9 -11 -6 -17
-57 -23 -71 -9 -29 29 -90 -4 -103 -55 -13 -53 3 -138 41 -215 20 -40 44 -82
52 -91 25 -28 35 -9 13 22 -101 141 -118 330 -30 330 17 0 30 -4 30 -10 0 -5
13 -10 29 -10 34 0 81 40 82 72 1 13 2 35 3 51 3 40 -10 33 -26 -15 -8 -26
-20 -44 -30 -46 -25 -5 -23 22 3 57 17 24 20 37 15 73 -4 23 -9 75 -10 114 -4
69 -26 134 -46 134 -6 0 -10 -2 -10 -5z"/>
<path d="M1010 3641 c0 -5 -3 -16 -6 -25 -4 -11 0 -16 14 -16 15 0 19 5 15 20
-6 22 -23 38 -23 21z"/>
<path d="M1760 3421 c0 -22 -13 -39 -60 -80 -33 -29 -67 -66 -75 -81 -19 -37
-20 -140 -1 -166 18 -24 31 -13 17 14 -33 61 -2 147 79 223 49 45 60 61 60 87
0 18 -4 32 -10 32 -5 0 -10 -13 -10 -29z"/>
<path d="M1236 3397 c6 -16 54 -37 85 -37 26 0 33 -17 39 -90 4 -52 9 -67 25
-75 11 -5 38 -21 59 -34 l39 -24 -7 -67 c-5 -59 -4 -68 12 -74 9 -3 25 -11 34
-18 15 -11 29 -9 80 10 35 12 66 22 70 22 5 0 14 -15 22 -32 11 -25 15 -28 15
-13 1 28 -35 85 -56 87 -10 0 -36 2 -58 2 -37 1 -40 3 -43 31 -2 17 -10 33
-17 38 -7 4 -16 21 -20 38 -5 23 -17 35 -51 51 -46 23 -74 65 -74 112 0 41
-41 76 -89 76 -22 0 -47 3 -55 6 -12 5 -15 2 -10 -9z"/>
<path d="M2250 3328 c0 -57 -31 -117 -91 -175 -68 -66 -159 -114 -159 -83 0 6
8 10 17 10 9 0 14 3 10 6 -3 4 -17 4 -31 0 -17 -4 -29 -19 -41 -50 -23 -61
-50 -84 -76 -68 -17 11 -19 9 -19 -9 0 -60 -124 -239 -166 -239 -13 0 -28 -9
-34 -20 -23 -43 49 -94 76 -54 28 41 48 54 85 54 21 0 40 -4 43 -9 13 -20 62
-19 104 2 38 18 47 19 77 8 43 -15 67 -9 80 21 6 13 19 24 30 26 33 6 55 43
55 93 0 35 6 53 25 73 26 28 32 46 15 46 -5 0 -10 -4 -10 -10 0 -5 -16 -12
-35 -16 -34 -6 -35 -8 -35 -51 0 -55 -20 -95 -55 -111 -36 -17 -75 7 -75 44 0
14 -4 22 -10 19 -5 -3 -10 -21 -10 -40 0 -47 -34 -79 -75 -70 -16 4 -46 7 -65
8 -30 2 -35 6 -38 29 -4 33 25 102 62 146 22 25 35 32 64 32 27 0 44 8 69 32
27 26 41 32 73 31 38 -2 42 1 78 55 56 83 82 159 82 242 0 40 -4 70 -10 70 -5
0 -10 -19 -10 -42z"/>
<path d="M687 3333 c-15 -74 35 -227 97 -300 23 -28 35 -33 70 -33 35 0 48 -6
76 -35 29 -30 39 -35 63 -29 20 4 34 1 49 -13 36 -32 69 -100 71 -145 l2 -43
-36 3 c-21 2 -40 -1 -44 -7 -10 -18 -54 -12 -75 9 -12 12 -20 33 -20 54 0 19
-4 38 -10 41 -6 3 -10 -4 -10 -18 0 -34 -31 -60 -64 -51 -40 10 -66 54 -66
113 0 47 -2 51 -24 51 -14 0 -31 7 -40 15 -18 19 -26 19 -26 2 0 -8 11 -24 25
-37 20 -19 25 -33 25 -75 0 -41 5 -56 23 -73 13 -12 30 -22 39 -22 8 0 20 -11
26 -25 13 -27 37 -32 77 -13 21 10 33 8 70 -11 44 -22 47 -22 92 -7 70 24 90
21 134 -24 34 -34 42 -38 59 -28 29 18 41 53 26 74 -8 10 -18 14 -25 9 -30
-18 -171 187 -171 248 0 16 -3 17 -15 7 -23 -19 -52 -2 -70 43 -20 49 -42 77
-63 77 -11 0 -12 -3 -3 -14 20 -24 -2 -25 -49 -3 -51 24 -155 125 -172 165 -6
15 -16 49 -23 77 -11 49 -12 49 -18 18z"/>
<path d="M1250 3336 c0 -10 10 -14 31 -14 20 1 37 -6 45 -17 14 -19 20 -9 6
11 -19 30 -82 45 -82 20z"/>
<path d="M1263 3293 c-7 -2 -13 -11 -13 -19 0 -9 5 -12 10 -9 24 15 42 -18 35
-62 -3 -24 -3 -58 1 -76 8 -30 9 -29 16 23 4 30 10 70 14 89 9 45 -21 71 -63
54z"/>
<path d="M1108 3223 c-16 -38 -18 -39 -28 -23 -7 11 -10 3 -10 -26 0 -48 12
-60 66 -72 38 -8 39 -9 42 -52 4 -69 11 -90 39 -116 31 -29 47 -30 100 -4 43
20 53 35 53 78 0 37 10 50 44 54 34 4 52 28 42 54 -8 18 -9 18 -17 -3 -8 -23
-43 -31 -54 -13 -3 5 4 19 15 30 18 18 19 21 4 27 -26 10 -48 -11 -54 -48 -4
-28 -9 -34 -31 -35 -35 -1 -49 -11 -49 -35 0 -20 15 -26 25 -9 11 18 26 10 23
-12 -2 -16 -11 -24 -29 -26 -37 -4 -73 41 -65 83 5 25 2 32 -16 40 -13 6 -25
19 -27 30 -2 11 -12 26 -22 33 -11 8 -19 25 -19 43 0 37 -17 38 -32 2z"/>
<path d="M1413 2949 c8 -31 -9 -68 -39 -81 -22 -10 -28 -10 -38 5 -10 12 -15
14 -24 5 -18 -18 -14 -38 8 -38 36 0 51 -39 40 -100 -9 -50 -8 -56 16 -92 42
-60 51 -64 79 -38 14 14 32 21 43 18 15 -4 24 3 36 29 21 44 20 86 -1 126 -16
30 -18 31 -21 9 -6 -37 -27 -19 -26 21 1 32 -1 35 -17 26 -36 -19 -51 -54 -44
-102 7 -48 -5 -68 -29 -47 -10 8 -13 33 -12 93 3 71 5 82 22 86 10 2 24 11 30
19 10 14 16 14 38 4 38 -17 101 -15 117 4 11 13 9 14 -17 8 -16 -3 -31 -7 -34
-6 -33 0 -47 7 -77 37 -40 40 -58 45 -50 14z m95 -236 c2 -15 -5 -27 -23 -39
-27 -18 -47 -12 -27 8 7 7 12 23 12 36 0 31 34 26 38 -5z"/>
<path d="M1640 2949 c0 -21 69 -159 80 -159 15 0 13 10 -14 62 -13 25 -28 60
-34 77 -11 30 -32 43 -32 20z"/>
<path d="M1591 2806 c16 -27 18 -39 10 -55 -6 -11 -8 -27 -5 -35 3 -9 -2 -45
-11 -80 -15 -55 -16 -72 -6 -112 7 -26 21 -60 33 -76 22 -31 28 -108 11 -130
-6 -7 -15 -27 -21 -44 -9 -27 -6 -40 14 -80 13 -27 24 -64 24 -82 1 -93 -79
-174 -185 -188 -69 -10 -43 -27 29 -19 66 8 127 34 148 64 8 11 37 24 71 31
60 14 76 30 29 30 -55 0 -64 17 -70 127 -3 61 0 120 7 150 13 52 15 47 -57
179 -13 24 -12 46 14 249 4 29 -1 49 -15 73 -28 43 -46 41 -20 -2z"/>
<path d="M1352 2600 c19 -38 19 -41 3 -67 -15 -23 -16 -32 -5 -78 20 -83 -3
-160 -73 -247 -27 -34 -29 -41 -23 -89 9 -65 27 -101 65 -128 36 -26 58 -27
66 -2 6 21 61 51 93 51 27 0 48 22 61 63 10 30 8 41 -14 85 -17 33 -25 66 -25
99 0 42 5 54 30 78 17 16 30 39 30 52 0 37 -27 81 -60 98 -19 10 -27 20 -24
30 8 20 31 19 43 -2 10 -17 10 -17 11 0 0 23 -45 40 -71 27 -29 -16 -23 -37
20 -61 21 -12 44 -33 50 -47 10 -21 8 -30 -14 -63 -14 -22 -29 -39 -35 -39
-15 0 -23 21 -11 33 17 17 12 69 -8 95 -24 28 -35 29 -20 1 6 -13 8 -39 4 -65
-4 -31 -1 -52 11 -76 41 -76 20 -178 -35 -178 -44 0 -54 49 -25 118 20 47 19
127 -1 177 -10 22 -14 51 -11 68 6 29 -11 74 -37 96 -10 8 -8 -1 5 -29z m71
-470 c15 0 27 5 27 12 0 6 3 8 7 5 3 -4 12 -2 19 4 17 14 28 -5 20 -36 -4 -16
-18 -27 -43 -35 -21 -7 -53 -24 -72 -38 l-34 -25 -23 28 c-33 41 -40 97 -18
134 l18 30 36 -39 c25 -27 45 -40 63 -40z"/>
<path d="M1050 2603 c-14 -9 -29 -22 -35 -29 -5 -6 -27 -21 -47 -33 -30 -18
-46 -21 -82 -16 -37 6 -46 4 -59 -15 -8 -11 -28 -25 -43 -29 -26 -7 -29 -11
-26 -42 4 -36 39 -125 47 -117 3 2 0 19 -5 37 -12 44 10 101 39 101 24 0 28
-28 6 -36 -31 -12 -12 -98 26 -122 22 -14 26 0 4 18 -8 7 -15 27 -15 46 0 25
5 34 23 40 12 3 36 22 54 41 24 26 39 34 60 31 23 -2 29 -8 31 -35 3 -27 -1
-35 -22 -45 -29 -13 -34 -28 -10 -28 8 0 29 14 46 30 27 28 30 36 26 75 -4 34
-1 48 13 61 25 22 43 13 70 -35 12 -22 28 -42 34 -45 23 -9 114 44 131 75 24
47 16 74 -23 74 -36 1 -42 -9 -17 -23 13 -7 14 -13 5 -30 -16 -30 -40 -52 -57
-52 -18 0 -54 57 -54 85 0 18 -5 20 -34 17 -18 -2 -37 1 -40 7 -10 15 -17 14
-46 -6z"/>
<path d="M1857 2609 c-10 -6 -29 -8 -43 -5 -20 5 -24 3 -24 -16 0 -31 -36 -88
-55 -88 -17 0 -64 48 -65 66 0 7 7 14 15 18 26 10 16 22 -17 21 -39 0 -45 -18
-24 -69 10 -24 27 -42 48 -52 18 -8 41 -20 50 -26 21 -15 45 4 74 57 33 63 74
40 74 -41 0 -73 27 -101 90 -95 8 1 0 8 -18 16 -29 13 -33 19 -30 47 3 29 7
33 35 36 26 3 36 -3 58 -31 14 -19 37 -38 50 -41 21 -5 25 -13 25 -41 0 -18
-4 -37 -10 -40 -5 -3 -10 -11 -10 -18 0 -26 41 32 47 66 4 30 2 41 -12 51 -26
19 -13 51 15 36 25 -13 34 -49 27 -102 -5 -35 -3 -39 8 -27 16 16 47 127 39
140 -3 5 -14 9 -25 9 -10 0 -30 13 -44 29 -24 27 -29 28 -65 19 -34 -9 -44 -7
-77 13 -21 12 -53 35 -71 51 -36 31 -39 32 -65 17z"/>
<path d="M1080 2365 c0 -26 112 -145 138 -145 22 0 12 25 -21 49 -18 13 -48
43 -67 67 -37 46 -50 54 -50 29z"/>
<path d="M1830 2344 c-13 -20 -46 -55 -72 -77 -45 -37 -61 -67 -38 -67 17 0
160 146 160 164 0 27 -24 18 -50 -20z"/>
<path d="M2011 2325 c-7 -31 -28 -86 -46 -122 -31 -62 -35 -83 -16 -83 18 0
101 203 101 248 0 6 -6 12 -13 12 -9 0 -19 -22 -26 -55z"/>
<path d="M1063 2085 c-34 -34 -36 -38 -30 -91 5 -44 3 -56 -10 -61 -19 -8 -35
15 -30 45 6 31 -10 27 -28 -8 -45 -88 21 -240 105 -240 15 0 35 -9 44 -19 10
-11 28 -21 40 -23 15 -2 22 -11 24 -32 8 -67 -17 -95 -93 -106 -42 -6 -42 -4
-28 -71 3 -16 -2 -37 -11 -51 -12 -19 -13 -31 -6 -60 6 -20 17 -39 25 -42 17
-6 21 9 5 19 -15 9 -12 48 5 71 8 10 15 29 15 42 0 12 5 22 10 22 13 0 13 -57
0 -65 -14 -9 -13 -58 2 -73 7 -7 23 -12 38 -12 l25 0 -25 20 c-27 21 -28 15
14 82 8 13 6 25 -8 48 -14 25 -15 34 -6 45 18 22 64 18 85 -6 16 -17 17 -25 8
-50 -13 -35 -4 -37 24 -6 33 34 34 82 4 92 -42 13 -54 121 -20 180 25 42 20
76 -16 107 l-24 21 20 29 c24 33 30 89 12 95 -8 3 -13 -5 -13 -20 0 -53 -51
-59 -90 -10 -22 29 -27 92 -8 111 17 17 49 15 76 -4 19 -13 22 -13 22 0 0 22
-54 56 -90 56 -23 0 -42 -10 -67 -35z m60 -171 c42 -39 87 -112 87 -142 0 -10
-6 -26 -13 -37 -13 -17 -16 -17 -63 7 -27 14 -64 31 -81 38 -18 7 -33 18 -33
25 0 8 -4 15 -10 17 -5 2 -11 18 -12 37 -2 27 1 34 17 37 11 1 29 14 40 28 11
14 22 25 25 25 3 0 22 -15 43 -35z"/>
<path d="M1766 2099 c-34 -27 -37 -58 -4 -35 30 21 61 20 81 -2 22 -24 21 -44
-3 -92 -32 -62 -100 -65 -100 -4 0 13 -4 24 -10 24 -18 0 -11 -67 10 -93 25
-32 25 -31 -5 -61 -29 -29 -33 -79 -10 -110 10 -13 15 -43 15 -82 0 -59 -2
-64 -31 -85 -26 -19 -30 -26 -25 -52 7 -36 33 -67 55 -67 12 0 12 3 3 12 -7 7
-12 24 -12 38 0 35 17 50 56 50 42 0 49 -13 34 -61 -11 -33 -11 -42 4 -63 23
-35 21 -66 -4 -66 -11 0 -20 -4 -20 -10 0 -18 46 -11 65 10 17 19 17 21 0 59
-10 22 -15 48 -11 57 5 13 13 5 33 -34 25 -49 25 -52 9 -77 -22 -34 -14 -43
13 -16 23 23 28 75 10 87 -8 4 -10 26 -6 64 l6 57 -45 6 c-25 2 -53 12 -63 21
-35 32 -36 116 -2 116 10 0 27 9 39 20 12 11 32 20 45 20 59 0 117 85 117 172
-1 46 -16 88 -32 88 -3 0 -8 -14 -12 -31 -4 -22 -11 -30 -23 -27 -15 3 -17 12
-15 60 4 53 2 58 -32 92 -43 43 -88 48 -130 15z m121 -145 c-8 -9 36 -51 59
-56 41 -8 8 -99 -44 -119 -15 -6 -48 -22 -73 -35 -26 -13 -49 -24 -52 -24 -2
0 -10 13 -17 29 -10 25 -8 35 14 77 14 27 26 54 26 60 0 6 8 11 17 11 9 0 29
14 43 31 14 18 27 32 29 32 2 0 2 -3 -2 -6z"/>
<path d="M2120 1750 c0 -19 -7 -44 -16 -55 -11 -15 -13 -33 -8 -71 4 -33 2
-54 -5 -58 -17 -11 -13 -66 9 -124 22 -57 26 -113 10 -143 -14 -25 -62 -49
-100 -49 -29 0 -30 2 -30 43 0 24 -6 51 -13 62 -13 16 -14 15 -10 -12 4 -24
-1 -35 -29 -58 -18 -16 -32 -33 -30 -38 6 -21 -9 -57 -29 -67 -35 -19 -63 9
-78 76 -9 38 -23 67 -41 86 -34 34 -58 38 -36 6 45 -63 -14 -169 -79 -144 -9
3 -25 27 -37 53 -11 27 -29 58 -41 70 -15 17 -20 36 -20 78 0 30 -4 55 -9 55
-5 0 -8 -6 -7 -12 2 -7 -1 -52 -5 -100 -7 -75 -11 -88 -28 -94 -29 -9 -35 6
-44 115 l-8 96 -6 -62 c-5 -46 -14 -69 -33 -93 -15 -17 -27 -39 -27 -49 0 -30
-30 -61 -59 -61 -58 0 -99 85 -66 136 26 40 9 41 -29 1 -23 -25 -38 -53 -45
-89 -14 -61 -26 -78 -55 -78 -30 0 -46 18 -46 53 0 20 -11 39 -36 62 -31 29
-35 39 -29 62 5 22 4 25 -6 16 -6 -6 -14 -35 -17 -62 -5 -51 -9 -55 -47 -51
-72 8 -104 62 -86 145 7 30 17 57 22 60 12 8 12 87 -1 119 -6 17 -6 36 2 56 9
27 7 36 -12 62 -14 19 -20 39 -17 54 3 17 0 24 -10 24 -12 0 -14 -9 -8 -42 12
-70 11 -198 -1 -206 -17 -11 -34 -48 -34 -75 0 -13 -12 -34 -26 -48 -43 -40
-75 -114 -81 -189 -10 -113 12 -156 73 -144 22 4 34 2 34 -5 0 -6 11 -16 24
-22 19 -9 38 -7 89 10 39 13 83 21 109 19 36 -3 46 -8 66 -38 12 -19 37 -41
55 -48 18 -7 37 -20 44 -29 11 -14 19 -14 75 -2 84 19 393 19 466 0 50 -13 54
-12 67 7 8 10 27 22 43 25 18 4 36 19 52 44 23 34 30 38 74 41 26 2 69 -4 94
-12 58 -20 111 -21 118 -2 4 10 19 14 45 13 57 -2 64 11 64 111 0 104 -13 146
-66 212 -22 27 -39 60 -39 74 0 14 -11 42 -25 62 -29 43 -34 124 -10 170 19
36 19 45 0 70 -14 18 -14 17 -15 -16z m-1310 -427 c0 -73 138 -149 180 -99 14
18 40 10 40 -13 0 -22 45 -69 74 -77 31 -8 61 9 83 46 21 36 23 36 58 9 15
-12 43 -24 62 -26 28 -3 40 2 67 29 18 18 35 40 38 48 4 13 7 13 24 -1 32 -27
48 -28 81 -2 l32 23 15 -29 c20 -38 62 -71 91 -71 12 0 39 11 59 25 41 28 56
31 56 13 0 -6 10 -22 22 -35 42 -45 113 -23 138 42 10 25 43 34 55 15 13 -21
71 -10 112 20 39 29 63 71 63 112 0 32 23 15 48 -37 30 -59 37 -182 12 -195
-76 -39 -109 -44 -165 -25 -25 8 -69 15 -97 15 -46 0 -54 -4 -93 -42 -24 -24
-59 -51 -79 -62 -31 -17 -43 -17 -111 -7 -97 14 -293 14 -390 0 -90 -14 -104
-9 -182 63 -48 44 -56 48 -103 48 -28 0 -67 -7 -87 -15 -19 -8 -44 -15 -55
-15 -27 0 -121 32 -131 45 -4 6 -6 40 -3 78 6 81 50 175 73 156 7 -6 13 -23
13 -36z"/>
<path d="M1352 1668 c-6 -14 -16 -29 -21 -33 -18 -10 -12 -51 11 -80 21 -27
21 -29 5 -57 -21 -37 -22 -100 -2 -138 21 -41 26 -38 18 15 -6 45 -5 47 41 89
34 32 46 51 46 72 0 40 -21 76 -50 91 -14 7 -28 24 -31 40 l-6 28 -11 -27z"/>
<path d="M1590 1668 c0 -15 -11 -29 -30 -40 -30 -17 -50 -52 -50 -89 0 -11 21
-40 46 -64 43 -42 46 -48 42 -90 -4 -51 3 -57 20 -20 17 36 15 101 -3 129 -15
23 -12 56 6 56 4 0 13 17 18 37 9 32 8 40 -9 58 -11 12 -20 27 -20 33 0 7 -4
12 -10 12 -5 0 -10 -10 -10 -22z"/>
</g>
</svg>
